# AST/ASF file generated using VICON BodyLanguage
# -----------------------------------------------
:version 1.10
:name VICON
:units
  mass 1.0
  length 0.45
  angle deg
:documentation
   .ast/.asf automatically generated from VICON data using
   VICON BodyBuilder and BodyLanguage model FoxedUp or BRILLIANT.MOD
:root
   order TX TY TZ RX RY RZ
   axis XYZ
   position 0 0 0  
   orientation 0 0 0 
:bonedata
  begin
     id 1 
     name lhipjoint
     direction 0.602128 -0.715006 0.355257 
     length 2.21237 
     axis 0 0 0  XYZ
  end
  begin
     id 2 
     name lfemur
     direction 0.34202 -0.939693 0  
     length 6.71649  
     axis 0 0 20  XYZ
    dof rx ry rz
    limits (-160.0 20.0)
           (-70.0 70.0)
           (-60.0 70.0)
  end
  begin
     id 3 
     name ltibia
     direction 0.34202 -0.939693 0   
     length 6.97123   
     axis 0 0 20   XYZ
    dof rx
    limits (-10.0 170.0)
  end
  begin
     id 4 
     name lfoot
     direction 0.0655697 -0.180151 0.981451   
     length 1.80924   
     axis -90 7.62852e-016 20   XYZ
    dof rx rz
    limits (-45.0 90.0)
           (-70.0 20.0)
  end
  begin
     id 5 
     name ltoes
     direction 1.53545e-011 -4.21827e-011 1   
     length 0.916331   
     axis -90 7.62852e-016 20   XYZ
    dof rx
    limits (-90.0 20.0)
  end
  begin
     id 6 
     name rhipjoint
     direction -0.625414 -0.698792 0.347201   
     length 2.2637  
     axis 0 0 0  XYZ 
  end
  begin
     id 7 
     name rfemur
     direction -0.34202 -0.939693 0   
     length 7.07595   
     axis 0 0 -20   XYZ
    dof rx ry rz
    limits (-160.0 20.0)
           (-70.0 70.0)
           (-70.0 60.0)
  end
  begin
     id 8 
     name rtibia
     direction -0.34202 -0.939693 0   
     length 7.22924   
     axis 0 0 -20   XYZ
    dof rx
    limits (-10.0 170.0)
 end
 begin
     id 9 
     name rfoot
     direction -0.0766747 -0.210662 0.974547   
     length 1.98482  
     axis -90 -7.62852e-016 -20   XYZ
    dof rx rz
    limits (-45.0 90.0)
           (-20.0 70.0)
  end
  begin
     id 10 
     name rtoes
     direction -1.53532e-011 -4.21867e-011 1   
     length 0.999842   
     axis -90 -7.62852e-016 -20   XYZ
    dof rx
    limits (-90.0 20.0)
  end
  begin
     id 11 
     name lowerback
     direction -0.0224668 0.997354 -0.0691422   
     length 2.09945   
     axis 0 0 0   XYZ
    dof rx ry rz
    limits (-20.0 45.0)
           (-30.0 30.0)
           (-30.0 30.0)
  end
  begin
     id 12 
     name upperback
     direction 0.0134698 0.998451 -0.0539888   
     length 2.09758   
     axis 0 0 0   XYZ
    dof rx ry rz
    limits (-20.0 45.0)
           (-30.0 30.0)
           (-30.0 30.0)
  end
  begin
     id 13 
     name thorax
     direction 0.0241905 0.99948 -0.0213333   
     length 2.10428   
     axis 0 0 0   XYZ
    dof rx ry rz
    limits (-20.0 45.0)
           (-30.0 30.0)
           (-30.0 30.0)
  end
  begin
     id 14 
     name lowerneck
     direction -0.00866847 0.995978 0.0891737   
     length 1.3959   
     axis 0 0 0   XYZ
    dof rx ry rz
    limits (-20.0 45.0)
           (-30.0 30.0)
           (-30.0 30.0)
  end
  begin
     id 15 
     name upperneck
     direction 0.0680679 0.992203 0.104404   
     length 1.39452   
     axis 0 0 0   XYZ
    dof rx ry rz
    limits (-20.0 45.0)
           (-30.0 30.0)
           (-30.0 30.0)
  end
  begin
     id 16
     name head
     direction 0.0242216 0.999358 0.0264054  
     length 1.40433  
     axis 0 0 0   XYZ
    dof rx ry rz
    limits (-20.0 45.0)
           (-30.0 30.0)
           (-30.0 30.0)
  end
  begin
     id 17 
     name lclavicle
     direction 0.929368 0.362991 -0.0671771  
     length 3.04887  
     axis 0 0 0   XYZ
    dof ry rz
    limits (-20.0 10.0)
           (0.0 20.0)
  end
  begin
     id 18 
     name lhumerus
     direction 1 -4.48967e-011 -7.13741e-028   
     length 4.77195   
     axis -180 -30 -90   XYZ
    dof rx ry rz
    limits (-60.0 90.0)
           (-90.0 90.0)
           (-90.0 90.0)
  end
  begin
     id 19
     name lradius
     direction 1 -4.48977e-011 3.60404e-027   
     length 2.98444   
     axis -180 -30 -90   XYZ
    dof rx
    limits (-10.0 170.0)
  end
  begin
     id 20
     name lwrist
     direction 1 -4.48997e-011 7.54877e-027   
     length 1.49222   
     axis -7.18178e-015 90 90   XYZ
    dof ry
    limits (-180.0 0.0)
 end
  begin
     id 21 
     name lhand
     direction 1 -4.489e-011 1.51105e-026   
     length 0.992285   
     axis -9.63605e-015 90 90   XYZ
    dof rx rz
    limits (-90.0 90.0)
           (-45.0 45.0)
  end
  begin
     id 22 
     name lfingers
     direction 1 -4.48998e-011 3.01948e-026   
     length 0.800006   
     axis -1.92718e-014 90 90   XYZ
    dof rx
    limits (0.0 90.0)
  end
  begin
     id 23
     name lthumb
     direction 0.707107 -6.34881e-011 0.707107   
     length 1.14865   
     axis -90 45 -3.53137e-014   XYZ
    dof rx rz
    limits (-45.0 45.0)
           (-45.0 45.0)
  end
  begin
     id 24 
     name rclavicle
     direction -0.945672 0.324529 0.0196374   
     length 3.4236  
     axis 0 0 0   XYZ 
    dof ry rz
    limits (-10.0 20.0)
           (-20.0 0.0)
  end
  begin
     id 25 
     name rhumerus
     direction -1 -4.4896e-011 1.02757e-029  
     length 4.62052   
     axis -180 30 90   XYZ
    dof rx ry rz
    limits (-90.0 60.0)
           (-90.0 90.0)
           (-90.0 90.0)
  end
  begin
     id 26 
     name rradius
     direction -1 -4.48982e-011 3.85962e-027   
     length 2.95332   
     axis -180 30 90   XYZ
    dof rx
    limits (-10.0 170.0)
  end
  begin
     id 27 
     name rwrist
     direction -1 -4.48961e-011 7.55118e-027   
     length 1.47666   
     axis -7.18178e-015 -90 -90   XYZ
    dof ry
    limits (-180.0 0.0)
  end
  begin
     id 28
     name rhand
     direction -1 -4.48984e-011 1.50994e-026   
     length 0.990956   
     axis -9.63605e-015 -90 -90   XYZ
    dof rx rz
    limits (-90.0 90.0)
           (-45.0 45.0)
  end
  begin
     id 29
     name rfingers
     direction -1 -4.4892e-011 3.02158e-026   
     length 0.798934   
     axis -1.92718e-014 -90 -90   XYZ
    dof rx
    limits (0.0 90.0)
  end
  begin
     id 30
     name rthumb
     direction -0.707107 -6.34916e-011 0.707107   
     length 1.14711   
     axis -90 -45 3.53137e-014   XYZ
    dof rx rz
    limits (-45.0 45.0)
           (-45.0 45.0)
  end
:hierarchy
  begin
    root lhipjoint rhipjoint lowerback
    lhipjoint lfemur
    lfemur ltibia
    ltibia lfoot
    lfoot ltoes
    rhipjoint rfemur
    rfemur rtibia
    rtibia rfoot
    rfoot rtoes
    lowerback upperback
    upperback thorax
    thorax lowerneck lclavicle rclavicle
    lowerneck upperneck
    upperneck head
    lclavicle lhumerus
    lhumerus lradius
    lradius lwrist
    lwrist lhand lthumb
    lhand lfingers
    rclavicle rhumerus
    rhumerus rradius
    rradius rwrist
    rwrist rhand rthumb
    rhand rfingers
  end

#!OML:ASF H:\ManfredObstacles\Project 1\Capture day 1\Session 1\Male.ASF
:FULLY-SPECIFIED
:DEGREES
257
root -9.66479 16.4721 10.6339 -172.708 42.3608 -182.455
lowerback -10.1878 -1.24481 -5.32919
upperback 2.23991 -0.850903 -0.978553
thorax 8.18855 -0.633315 1.81784
lowerneck 1.27489 -2.8253 -5.34004
upperneck -2.02739 -3.5057 11.77
head -0.545224 -1.75614 4.90468
rclavicle 3.8266e-014 1.11319e-014
rhumerus -38.4446 -14.7874 -79.4667
rradius 32.3829
rwrist 28.9094
rhand -0.115432 -4.82429
rfingers 7.12502
rthumb 25.4798 -33.1409
lclavicle 3.8266e-014 1.11319e-014
lhumerus -31.5926 19.7836 72.3002
lradius 17.0626
lwrist -35.8995
lhand -6.57626 9.97016
lfingers 7.12502
lthumb 19.2783 39.0346
rfemur -19.0115 -2.57392 16.784
rtibia 66.9221
rfoot 9.57253 14.5735
rtoes 18.1428
lfemur -20.9611 -1.27159 -20.5626
ltibia 20.3562
lfoot 0.390319 -17.3302
ltoes 0.767395
258
root -9.58886 16.4812 10.4828 -173.178 42.8118 -182.825
lowerback -9.78473 -1.40299 -5.55285
upperback 2.42414 -1.04517 -1.04202
thorax 8.17415 -0.73835 1.84613
lowerneck 1.61836 -2.8119 -5.63487
upperneck -2.34074 -3.46078 12.4587
head -0.624695 -1.76008 4.68408
rclavicle 1.00187e-013 -9.54166e-015
rhumerus -38.2818 -14.5899 -79.6594
rradius 32.8823
rwrist 28.1785
rhand -0.382156 -4.95389
rfingers 7.12502
rthumb 25.2243 -33.3067
lclavicle 1.00187e-013 -9.54166e-015
lhumerus -30.6425 18.586 73.0009
lradius 17.2403
lwrist -35.0017
lhand -6.51436 10.0255
lfingers 7.12502
lthumb 19.3378 39.084
rfemur -21.3004 -3.78854 16.5678
rtibia 69.5232
rfoot 6.15078 13.0692
rtoes 18.4882
lfemur -19.8355 -0.921535 -21.1004
ltibia 20.0889
lfoot -0.230997 -17.4979
ltoes 0.621603
259
root -9.5101 16.493 10.3364 -173.172 43.0797 -182.634
lowerback -9.43406 -1.58797 -5.42048
upperback 2.54219 -1.33859 -0.951063
thorax 8.11921 -0.879195 1.8235
lowerneck 1.63551 -2.7461 -5.57748
upperneck -2.18214 -3.38912 12.3979
head -0.590356 -1.7224 4.65452
rclavicle 1.33186e-014 2.78299e-014
rhumerus -38.1797 -14.5607 -79.7186
rradius 33.303
rwrist 27.478
rhand -0.626274 -5.28075
rfingers 7.12502
rthumb 24.9904 -33.6663
lclavicle 1.33186e-014 2.78299e-014
lhumerus -29.6818 17.9375 73.4626
lradius 17.1746
lwrist -34.9528
lhand -6.52205 9.89577
lfingers 7.12502
lthumb 19.3304 38.955
rfemur -23.5716 -4.7541 16.8476
rtibia 71.5054
rfoot 2.92013 12.2604
rtoes 18.579
lfemur -19.0173 -0.876311 -21.0998
ltibia 20.0574
lfoot -0.671125 -17.4276
ltoes 1.78182
260
root -9.42765 16.5015 10.1937 -172.815 43.3681 -182.043
lowerback -9.19425 -1.68721 -4.98386
upperback 2.64218 -1.55226 -0.825618
thorax 8.09241 -0.968524 1.67966
lowerneck 1.7336 -2.73209 -5.38454
upperneck -2.05196 -3.37948 12.3443
head -0.574252 -1.71844 4.60616
rclavicle -5.50634e-014 -1.55052e-014
rhumerus -38.0764 -14.988 -79.6394
rradius 33.4876
rwrist 27.0265
rhand -0.729426 -5.51429
rfingers 7.12502
rthumb 24.8915 -33.9136
lclavicle -5.50634e-014 -1.55052e-014
lhumerus -28.577 17.5319 73.7723
lradius 17.0084
lwrist -35.4966
lhand -6.45709 9.84341
lfingers 7.12502
lthumb 19.3929 38.8964
rfemur -25.7845 -5.30245 17.4279
rtibia 72.8411
rfoot 0.925821 11.4594
rtoes 25.5429
lfemur -18.4229 -0.885145 -20.7661
ltibia 20.2747
lfoot -1.20591 -17.2235
ltoes 3.28882
261
root -9.34403 16.4949 10.0558 -172.535 43.6874 -181.673
lowerback -9.06727 -1.76956 -4.77748
upperback 2.73742 -1.70463 -0.704974
thorax 8.1284 -1.03938 1.66787
lowerneck 1.71769 -2.80697 -5.19652
upperneck -1.78593 -3.50878 11.8643
head -0.547981 -1.76903 4.91647
rclavicle -3.34952e-014 2.82274e-014
rhumerus -38.0326 -15.5069 -79.3681
rradius 33.5793
rwrist 26.6883
rhand -0.674067 -5.40015
rfingers 7.12502
rthumb 24.9446 -33.7921
lclavicle -3.34952e-014 2.82274e-014
lhumerus -27.3097 17.5488 74.0193
lradius 16.6346
lwrist -36.5106
lhand -6.48636 9.59146
lfingers 7.12502
lthumb 19.3648 38.6473
rfemur -28.0465 -5.89515 17.9939
rtibia 73.4719
rfoot -1.02091 11.188
rtoes 29.244
lfemur -18.003 -0.890287 -20.6222
ltibia 20.6971
lfoot -2.02326 -17.0364
ltoes 4.3033
262
root -9.25853 16.4795 9.9145 -172.344 43.9302 -181.477
lowerback -8.99389 -1.89835 -4.73067
upperback 2.80853 -1.90125 -0.531085
thorax 8.18059 -1.14117 1.79386
lowerneck 1.67561 -2.88164 -5.25795
upperneck -1.52335 -3.63725 11.8459
head -0.441664 -1.82805 4.91702
rclavicle 2.18663e-014 1.55052e-014
rhumerus -38.0528 -15.6043 -79.0958
rradius 33.719
rwrist 26.0711
rhand -0.687482 -5.48864
rfingers 7.12502
rthumb 24.9317 -33.8824
lclavicle 2.18663e-014 1.55052e-014
lhumerus -26.1035 17.8554 74.3541
lradius 16.2493
lwrist -37.4767
lhand -6.34385 9.2983
lfingers 7.12502
lthumb 19.5018 38.3403
rfemur -30.3017 -6.75522 18.6315
rtibia 73.3458
rfoot -3.21198 11.0142
rtoes 26.7681
lfemur -17.6464 -1.01675 -20.6275
ltibia 21.255
lfoot -3.11651 -16.8347
ltoes 4.09357
263
root -9.1702 16.4615 9.76808 -172.425 44.1371 -181.552
lowerback -8.81589 -2.0742 -4.84375
upperback 2.8476 -2.14429 -0.390526
thorax 8.14782 -1.27017 1.97055
lowerneck 1.72555 -2.90047 -5.45252
upperneck -1.31469 -3.6829 12.3297
head -0.329773 -1.85498 4.60478
rclavicle -9.24349e-015 1.39149e-014
rhumerus -38.181 -15.4802 -78.8619
rradius 33.7914
rwrist 25.5754
rhand -0.836892 -5.87514
rfingers 7.12502
rthumb 24.7885 -34.2886
lclavicle -9.24349e-015 1.39149e-014
lhumerus -25.2111 17.8353 74.8814
lradius 16.329
lwrist -37.7037
lhand -6.08566 9.54627
lfingers 7.12502
lthumb 19.75 38.5629
rfemur -32.3142 -7.59325 19.0556
rtibia 72.586
rfoot -5.19028 10.8488
rtoes 24.4443
lfemur -17.177 -1.16 -20.8734
ltibia 21.8585
lfoot -4.07304 -16.68
ltoes 5.13819
264
root -9.0773 16.4344 9.62632 -172.715 44.5239 -181.773
lowerback -8.51486 -2.17977 -5.13287
upperback 2.91297 -2.27535 -0.279746
thorax 8.07272 -1.35176 2.23665
lowerneck 1.74781 -2.90551 -5.61469
upperneck -1.1293 -3.7084 12.4899
head -0.27092 -1.86409 4.67916
rclavicle -6.44062e-014 2.10712e-014
rhumerus -38.325 -15.8104 -78.3185
rradius 33.5378
rwrist 25.9878
rhand -0.882637 -5.6799
rfingers 7.12502
rthumb 24.7447 -34.0994
lclavicle -6.44062e-014 2.10712e-014
lhumerus -24.443 17.5724 75.5305
lradius 16.7228
lwrist -37.5493
lhand -6.34321 9.98791
lfingers 7.12502
lthumb 19.5024 39.0298
rfemur -34.0614 -8.01467 19.3117
rtibia 71.3323
rfoot -6.90429 10.6857
rtoes 23.9472
lfemur -16.5362 -1.18328 -21.2181
ltibia 22.3594
lfoot -4.92881 -16.5607
ltoes 6.42597
265
root -8.9775 16.4034 9.48264 -173.212 45.0017 -182.176
lowerback -8.25357 -2.19472 -5.51808
upperback 3.06226 -2.26004 -0.265585
thorax 8.10105 -1.36634 2.47498
lowerneck 1.7807 -2.95956 -5.62812
upperneck -1.16197 -3.7744 12.6423
head -0.276401 -1.89831 4.72867
rclavicle -7.97623e-014 7.15625e-015
rhumerus -38.3997 -16.4289 -77.6782
rradius 33.0793
rwrist 26.8219
rhand -0.805948 -5.28311
rfingers 7.12502
rthumb 24.8182 -33.6925
lclavicle -7.97623e-014 7.15625e-015
lhumerus -23.5457 16.8041 76.2849
lradius 17.1123
lwrist -36.8901
lhand -6.66537 10.2314
lfingers 7.12502
lthumb 19.1926 39.3044
rfemur -35.4927 -8.31983 19.3593
rtibia 69.6454
rfoot -8.51711 10.3948
rtoes 23.5725
lfemur -15.6669 -1.07461 -21.703
ltibia 22.6735
lfoot -5.81613 -16.5483
ltoes 6.65565
